<svg class="rich-terminal" viewBox="0 0 1726 1123.6" xmlns="http://www.w3.org/2000/svg">
    <!-- Generated with Rich https://www.textualize.io -->
    <style>

    @font-face {
        font-family: "Fira Code";
        src: local("FiraCode-Regular"),
                url("https://cdnjs.cloudflare.com/ajax/libs/firacode/6.2.0/woff2/FiraCode-Regular.woff2") format("woff2"),
                url("https://cdnjs.cloudflare.com/ajax/libs/firacode/6.2.0/woff/FiraCode-Regular.woff") format("woff");
        font-style: normal;
        font-weight: 400;
    }
    @font-face {
        font-family: "Fira Code";
        src: local("FiraCode-Bold"),
                url("https://cdnjs.cloudflare.com/ajax/libs/firacode/6.2.0/woff2/FiraCode-Bold.woff2") format("woff2"),
                url("https://cdnjs.cloudflare.com/ajax/libs/firacode/6.2.0/woff/FiraCode-Bold.woff") format("woff");
        font-style: bold;
        font-weight: 700;
    }

    .terminal-866951885-matrix {
        font-family: Fira Code, monospace;
        font-size: 20px;
        line-height: 24.4px;
        font-variant-east-asian: full-width;
    }

    .terminal-866951885-title {
        font-size: 18px;
        font-weight: bold;
        font-family: arial;
    }

    .terminal-866951885-r1 { fill: #c5c8c6 }
.terminal-866951885-r2 { fill: #ddedf9 }
.terminal-866951885-r3 { fill: #0178d4 }
.terminal-866951885-r4 { fill: #4ebf71 }
.terminal-866951885-r5 { fill: #e0e0e0 }
.terminal-866951885-r6 { fill: #fea62b }
.terminal-866951885-r7 { fill: #003054 }
.terminal-866951885-r8 { fill: #1e1e1e }
.terminal-866951885-r9 { fill: #ffa62b;font-weight: bold }
.terminal-866951885-r10 { fill: #495259 }
    </style>

    <defs>
    <clipPath id="terminal-866951885-clip-terminal">
      <rect x="0" y="0" width="1707.0" height="1072.6" />
    </clipPath>
    <clipPath id="terminal-866951885-line-0">
    <rect x="0" y="1.5" width="1708" height="24.65"/>
            </clipPath>
<clipPath id="terminal-866951885-line-1">
    <rect x="0" y="25.9" width="1708" height="24.65"/>
            </clipPath>
<clipPath id="terminal-866951885-line-2">
    <rect x="0" y="50.3" width="1708" height="24.65"/>
            </clipPath>
<clipPath id="terminal-866951885-line-3">
    <rect x="0" y="74.7" width="1708" height="24.65"/>
            </clipPath>
<clipPath id="terminal-866951885-line-4">
    <rect x="0" y="99.1" width="1708" height="24.65"/>
            </clipPath>
<clipPath id="terminal-866951885-line-5">
    <rect x="0" y="123.5" width="1708" height="24.65"/>
            </clipPath>
<clipPath id="terminal-866951885-line-6">
    <rect x="0" y="147.9" width="1708" height="24.65"/>
            </clipPath>
<clipPath id="terminal-866951885-line-7">
    <rect x="0" y="172.3" width="1708" height="24.65"/>
            </clipPath>
<clipPath id="terminal-866951885-line-8">
    <rect x="0" y="196.7" width="1708" height="24.65"/>
            </clipPath>
<clipPath id="terminal-866951885-line-9">
    <rect x="0" y="221.1" width="1708" height="24.65"/>
            </clipPath>
<clipPath id="terminal-866951885-line-10">
    <rect x="0" y="245.5" width="1708" height="24.65"/>
            </clipPath>
<clipPath id="terminal-866951885-line-11">
    <rect x="0" y="269.9" width="1708" height="24.65"/>
            </clipPath>
<clipPath id="terminal-866951885-line-12">
    <rect x="0" y="294.3" width="1708" height="24.65"/>
            </clipPath>
<clipPath id="terminal-866951885-line-13">
    <rect x="0" y="318.7" width="1708" height="24.65"/>
            </clipPath>
<clipPath id="terminal-866951885-line-14">
    <rect x="0" y="343.1" width="1708" height="24.65"/>
            </clipPath>
<clipPath id="terminal-866951885-line-15">
    <rect x="0" y="367.5" width="1708" height="24.65"/>
            </clipPath>
<clipPath id="terminal-866951885-line-16">
    <rect x="0" y="391.9" width="1708" height="24.65"/>
            </clipPath>
<clipPath id="terminal-866951885-line-17">
    <rect x="0" y="416.3" width="1708" height="24.65"/>
            </clipPath>
<clipPath id="terminal-866951885-line-18">
    <rect x="0" y="440.7" width="1708" height="24.65"/>
            </clipPath>
<clipPath id="terminal-866951885-line-19">
    <rect x="0" y="465.1" width="1708" height="24.65"/>
            </clipPath>
<clipPath id="terminal-866951885-line-20">
    <rect x="0" y="489.5" width="1708" height="24.65"/>
            </clipPath>
<clipPath id="terminal-866951885-line-21">
    <rect x="0" y="513.9" width="1708" height="24.65"/>
            </clipPath>
<clipPath id="terminal-866951885-line-22">
    <rect x="0" y="538.3" width="1708" height="24.65"/>
            </clipPath>
<clipPath id="terminal-866951885-line-23">
    <rect x="0" y="562.7" width="1708" height="24.65"/>
            </clipPath>
<clipPath id="terminal-866951885-line-24">
    <rect x="0" y="587.1" width="1708" height="24.65"/>
            </clipPath>
<clipPath id="terminal-866951885-line-25">
    <rect x="0" y="611.5" width="1708" height="24.65"/>
            </clipPath>
<clipPath id="terminal-866951885-line-26">
    <rect x="0" y="635.9" width="1708" height="24.65"/>
            </clipPath>
<clipPath id="terminal-866951885-line-27">
    <rect x="0" y="660.3" width="1708" height="24.65"/>
            </clipPath>
<clipPath id="terminal-866951885-line-28">
    <rect x="0" y="684.7" width="1708" height="24.65"/>
            </clipPath>
<clipPath id="terminal-866951885-line-29">
    <rect x="0" y="709.1" width="1708" height="24.65"/>
            </clipPath>
<clipPath id="terminal-866951885-line-30">
    <rect x="0" y="733.5" width="1708" height="24.65"/>
            </clipPath>
<clipPath id="terminal-866951885-line-31">
    <rect x="0" y="757.9" width="1708" height="24.65"/>
            </clipPath>
<clipPath id="terminal-866951885-line-32">
    <rect x="0" y="782.3" width="1708" height="24.65"/>
            </clipPath>
<clipPath id="terminal-866951885-line-33">
    <rect x="0" y="806.7" width="1708" height="24.65"/>
            </clipPath>
<clipPath id="terminal-866951885-line-34">
    <rect x="0" y="831.1" width="1708" height="24.65"/>
            </clipPath>
<clipPath id="terminal-866951885-line-35">
    <rect x="0" y="855.5" width="1708" height="24.65"/>
            </clipPath>
<clipPath id="terminal-866951885-line-36">
    <rect x="0" y="879.9" width="1708" height="24.65"/>
            </clipPath>
<clipPath id="terminal-866951885-line-37">
    <rect x="0" y="904.3" width="1708" height="24.65"/>
            </clipPath>
<clipPath id="terminal-866951885-line-38">
    <rect x="0" y="928.7" width="1708" height="24.65"/>
            </clipPath>
<clipPath id="terminal-866951885-line-39">
    <rect x="0" y="953.1" width="1708" height="24.65"/>
            </clipPath>
<clipPath id="terminal-866951885-line-40">
    <rect x="0" y="977.5" width="1708" height="24.65"/>
            </clipPath>
<clipPath id="terminal-866951885-line-41">
    <rect x="0" y="1001.9" width="1708" height="24.65"/>
            </clipPath>
<clipPath id="terminal-866951885-line-42">
    <rect x="0" y="1026.3" width="1708" height="24.65"/>
            </clipPath>
    </defs>

    <rect fill="#292929" stroke="rgba(255,255,255,0.35)" stroke-width="1" x="1" y="1" width="1724" height="1121.6" rx="8"/><text class="terminal-866951885-title" fill="#c5c8c6" text-anchor="middle" x="862" y="27">OrcaApp</text>
            <g transform="translate(26,22)">
            <circle cx="0" cy="0" r="7" fill="#ff5f57"/>
            <circle cx="22" cy="0" r="7" fill="#febc2e"/>
            <circle cx="44" cy="0" r="7" fill="#28c840"/>
            </g>
        
    <g transform="translate(9, 41)" clip-path="url(#terminal-866951885-clip-terminal)">
    <rect fill="#0178d4" x="0" y="1.5" width="12.2" height="24.65" shape-rendering="crispEdges"/><rect fill="#0178d4" x="12.2" y="1.5" width="927.2" height="24.65" shape-rendering="crispEdges"/><rect fill="#0178d4" x="939.4" y="1.5" width="756.4" height="24.65" shape-rendering="crispEdges"/><rect fill="#0178d4" x="1695.8" y="1.5" width="12.2" height="24.65" shape-rendering="crispEdges"/><rect fill="#0178d4" x="0" y="25.9" width="12.2" height="24.65" shape-rendering="crispEdges"/><rect fill="#0178d4" x="12.2" y="25.9" width="1610.4" height="24.65" shape-rendering="crispEdges"/><rect fill="#0178d4" x="1622.6" y="25.9" width="73.2" height="24.65" shape-rendering="crispEdges"/><rect fill="#0178d4" x="1695.8" y="25.9" width="12.2" height="24.65" shape-rendering="crispEdges"/><rect fill="#1e1e1e" x="0" y="50.3" width="12.2" height="24.65" shape-rendering="crispEdges"/><rect fill="#1e1e1e" x="12.2" y="50.3" width="463.6" height="24.65" shape-rendering="crispEdges"/><rect fill="#1e1e1e" x="475.8" y="50.3" width="12.2" height="24.65" shape-rendering="crispEdges"/><rect fill="#1e1e1e" x="488" y="50.3" width="12.2" height="24.65" shape-rendering="crispEdges"/><rect fill="#121212" x="500.2" y="50.3" width="1207.8" height="24.65" shape-rendering="crispEdges"/><rect fill="#1e1e1e" x="0" y="74.7" width="12.2" height="24.65" shape-rendering="crispEdges"/><rect fill="#1e1e1e" x="12.2" y="74.7" width="12.2" height="24.65" shape-rendering="crispEdges"/><rect fill="#1e1e1e" x="24.4" y="74.7" width="366" height="24.65" shape-rendering="crispEdges"/><rect fill="#1e1e1e" x="390.4" y="74.7" width="73.2" height="24.65" shape-rendering="crispEdges"/><rect fill="#1e1e1e" x="463.6" y="74.7" width="12.2" height="24.65" shape-rendering="crispEdges"/><rect fill="#1e1e1e" x="475.8" y="74.7" width="12.2" height="24.65" shape-rendering="crispEdges"/><rect fill="#1e1e1e" x="488" y="74.7" width="12.2" height="24.65" shape-rendering="crispEdges"/><rect fill="#121212" x="500.2" y="74.7" width="1207.8" height="24.65" shape-rendering="crispEdges"/><rect fill="#1e1e1e" x="0" y="99.1" width="12.2" height="24.65" shape-rendering="crispEdges"/><rect fill="#1e1e1e" x="12.2" y="99.1" width="12.2" height="24.65" shape-rendering="crispEdges"/><rect fill="#1e1e1e" x="24.4" y="99.1" width="366" height="24.65" shape-rendering="crispEdges"/><rect fill="#1e1e1e" x="390.4" y="99.1" width="73.2" height="24.65" shape-rendering="crispEdges"/><rect fill="#1e1e1e" x="463.6" y="99.1" width="12.2" height="24.65" shape-rendering="crispEdges"/><rect fill="#1e1e1e" x="475.8" y="99.1" width="12.2" height="24.65" shape-rendering="crispEdges"/><rect fill="#1e1e1e" x="488" y="99.1" width="12.2" height="24.65" shape-rendering="crispEdges"/><rect fill="#121212" x="500.2" y="99.1" width="1207.8" height="24.65" shape-rendering="crispEdges"/><rect fill="#1e1e1e" x="0" y="123.5" width="12.2" height="24.65" shape-rendering="crispEdges"/><rect fill="#1e1e1e" x="12.2" y="123.5" width="12.2" height="24.65" shape-rendering="crispEdges"/><rect fill="#1e1e1e" x="24.4" y="123.5" width="390.4" height="24.65" shape-rendering="crispEdges"/><rect fill="#1e1e1e" x="414.8" y="123.5" width="48.8" height="24.65" shape-rendering="crispEdges"/><rect fill="#1e1e1e" x="463.6" y="123.5" width="12.2" height="24.65" shape-rendering="crispEdges"/><rect fill="#1e1e1e" x="475.8" y="123.5" width="12.2" height="24.65" shape-rendering="crispEdges"/><rect fill="#1e1e1e" x="488" y="123.5" width="12.2" height="24.65" shape-rendering="crispEdges"/><rect fill="#121212" x="500.2" y="123.5" width="1207.8" height="24.65" shape-rendering="crispEdges"/><rect fill="#1e1e1e" x="0" y="147.9" width="12.2" height="24.65" shape-rendering="crispEdges"/><rect fill="#1e1e1e" x="12.2" y="147.9" width="12.2" height="24.65" shape-rendering="crispEdges"/><rect fill="#1e1e1e" x="24.4" y="147.9" width="390.4" height="24.65" shape-rendering="crispEdges"/><rect fill="#1e1e1e" x="414.8" y="147.9" width="48.8" height="24.65" shape-rendering="crispEdges"/><rect fill="#1e1e1e" x="463.6" y="147.9" width="12.2" height="24.65" shape-rendering="crispEdges"/><rect fill="#1e1e1e" x="475.8" y="147.9" width="12.2" height="24.65" shape-rendering="crispEdges"/><rect fill="#1e1e1e" x="488" y="147.9" width="12.2" height="24.65" shape-rendering="crispEdges"/><rect fill="#121212" x="500.2" y="147.9" width="1207.8" height="24.65" shape-rendering="crispEdges"/><rect fill="#1e1e1e" x="0" y="172.3" width="12.2" height="24.65" shape-rendering="crispEdges"/><rect fill="#1e1e1e" x="12.2" y="172.3" width="12.2" height="24.65" shape-rendering="crispEdges"/><rect fill="#1e1e1e" x="24.4" y="172.3" width="378.2" height="24.65" shape-rendering="crispEdges"/><rect fill="#1e1e1e" x="402.6" y="172.3" width="61" height="24.65" shape-rendering="crispEdges"/><rect fill="#1e1e1e" x="463.6" y="172.3" width="12.2" height="24.65" shape-rendering="crispEdges"/><rect fill="#1e1e1e" x="475.8" y="172.3" width="12.2" height="24.65" shape-rendering="crispEdges"/><rect fill="#1e1e1e" x="488" y="172.3" width="12.2" height="24.65" shape-rendering="crispEdges"/><rect fill="#121212" x="500.2" y="172.3" width="1207.8" height="24.65" shape-rendering="crispEdges"/><rect fill="#1e1e1e" x="0" y="196.7" width="12.2" height="24.65" shape-rendering="crispEdges"/><rect fill="#1e1e1e" x="12.2" y="196.7" width="12.2" height="24.65" shape-rendering="crispEdges"/><rect fill="#1e1e1e" x="24.4" y="196.7" width="0" height="24.65" shape-rendering="crispEdges"/><rect fill="#1e1e1e" x="24.4" y="196.7" width="439.2" height="24.65" shape-rendering="crispEdges"/><rect fill="#1e1e1e" x="463.6" y="196.7" width="12.2" height="24.65" shape-rendering="crispEdges"/><rect fill="#1e1e1e" x="475.8" y="196.7" width="12.2" height="24.65" shape-rendering="crispEdges"/><rect fill="#1e1e1e" x="488" y="196.7" width="12.2" height="24.65" shape-rendering="crispEdges"/><rect fill="#121212" x="500.2" y="196.7" width="1207.8" height="24.65" shape-rendering="crispEdges"/><rect fill="#1e1e1e" x="0" y="221.1" width="12.2" height="24.65" shape-rendering="crispEdges"/><rect fill="#1e1e1e" x="12.2" y="221.1" width="12.2" height="24.65" shape-rendering="crispEdges"/><rect fill="#1e1e1e" x="24.4" y="221.1" width="231.8" height="24.65" shape-rendering="crispEdges"/><rect fill="#1e1e1e" x="256.2" y="221.1" width="207.4" height="24.65" shape-rendering="crispEdges"/><rect fill="#1e1e1e" x="463.6" y="221.1" width="12.2" height="24.65" shape-rendering="crispEdges"/><rect fill="#1e1e1e" x="475.8" y="221.1" width="12.2" height="24.65" shape-rendering="crispEdges"/><rect fill="#1e1e1e" x="488" y="221.1" width="12.2" height="24.65" shape-rendering="crispEdges"/><rect fill="#121212" x="500.2" y="221.1" width="1207.8" height="24.65" shape-rendering="crispEdges"/><rect fill="#1e1e1e" x="0" y="245.5" width="12.2" height="24.65" shape-rendering="crispEdges"/><rect fill="#1e1e1e" x="12.2" y="245.5" width="463.6" height="24.65" shape-rendering="crispEdges"/><rect fill="#1e1e1e" x="475.8" y="245.5" width="12.2" height="24.65" shape-rendering="crispEdges"/><rect fill="#1e1e1e" x="488" y="245.5" width="12.2" height="24.65" shape-rendering="crispEdges"/><rect fill="#121212" x="500.2" y="245.5" width="1207.8" height="24.65" shape-rendering="crispEdges"/><rect fill="#121212" x="0" y="269.9" width="488" height="24.65" shape-rendering="crispEdges"/><rect fill="#1e1e1e" x="488" y="269.9" width="12.2" height="24.65" shape-rendering="crispEdges"/><rect fill="#121212" x="500.2" y="269.9" width="1207.8" height="24.65" shape-rendering="crispEdges"/><rect fill="#121212" x="0" y="294.3" width="488" height="24.65" shape-rendering="crispEdges"/><rect fill="#1e1e1e" x="488" y="294.3" width="12.2" height="24.65" shape-rendering="crispEdges"/><rect fill="#121212" x="500.2" y="294.3" width="1207.8" height="24.65" shape-rendering="crispEdges"/><rect fill="#121212" x="0" y="318.7" width="488" height="24.65" shape-rendering="crispEdges"/><rect fill="#1e1e1e" x="488" y="318.7" width="12.2" height="24.65" shape-rendering="crispEdges"/><rect fill="#121212" x="500.2" y="318.7" width="1207.8" height="24.65" shape-rendering="crispEdges"/><rect fill="#121212" x="0" y="343.1" width="488" height="24.65" shape-rendering="crispEdges"/><rect fill="#1e1e1e" x="488" y="343.1" width="12.2" height="24.65" shape-rendering="crispEdges"/><rect fill="#121212" x="500.2" y="343.1" width="1207.8" height="24.65" shape-rendering="crispEdges"/><rect fill="#121212" x="0" y="367.5" width="488" height="24.65" shape-rendering="crispEdges"/><rect fill="#1e1e1e" x="488" y="367.5" width="12.2" height="24.65" shape-rendering="crispEdges"/><rect fill="#121212" x="500.2" y="367.5" width="1207.8" height="24.65" shape-rendering="crispEdges"/><rect fill="#121212" x="0" y="391.9" width="488" height="24.65" shape-rendering="crispEdges"/><rect fill="#1e1e1e" x="488" y="391.9" width="12.2" height="24.65" shape-rendering="crispEdges"/><rect fill="#121212" x="500.2" y="391.9" width="1207.8" height="24.65" shape-rendering="crispEdges"/><rect fill="#121212" x="0" y="416.3" width="488" height="24.65" shape-rendering="crispEdges"/><rect fill="#1e1e1e" x="488" y="416.3" width="12.2" height="24.65" shape-rendering="crispEdges"/><rect fill="#121212" x="500.2" y="416.3" width="1207.8" height="24.65" shape-rendering="crispEdges"/><rect fill="#121212" x="0" y="440.7" width="488" height="24.65" shape-rendering="crispEdges"/><rect fill="#1e1e1e" x="488" y="440.7" width="12.2" height="24.65" shape-rendering="crispEdges"/><rect fill="#121212" x="500.2" y="440.7" width="1207.8" height="24.65" shape-rendering="crispEdges"/><rect fill="#121212" x="0" y="465.1" width="488" height="24.65" shape-rendering="crispEdges"/><rect fill="#1e1e1e" x="488" y="465.1" width="12.2" height="24.65" shape-rendering="crispEdges"/><rect fill="#121212" x="500.2" y="465.1" width="1207.8" height="24.65" shape-rendering="crispEdges"/><rect fill="#121212" x="0" y="489.5" width="488" height="24.65" shape-rendering="crispEdges"/><rect fill="#1e1e1e" x="488" y="489.5" width="12.2" height="24.65" shape-rendering="crispEdges"/><rect fill="#121212" x="500.2" y="489.5" width="1207.8" height="24.65" shape-rendering="crispEdges"/><rect fill="#121212" x="0" y="513.9" width="488" height="24.65" shape-rendering="crispEdges"/><rect fill="#1e1e1e" x="488" y="513.9" width="12.2" height="24.65" shape-rendering="crispEdges"/><rect fill="#121212" x="500.2" y="513.9" width="1207.8" height="24.65" shape-rendering="crispEdges"/><rect fill="#121212" x="0" y="538.3" width="488" height="24.65" shape-rendering="crispEdges"/><rect fill="#1e1e1e" x="488" y="538.3" width="12.2" height="24.65" shape-rendering="crispEdges"/><rect fill="#121212" x="500.2" y="538.3" width="1207.8" height="24.65" shape-rendering="crispEdges"/><rect fill="#121212" x="0" y="562.7" width="488" height="24.65" shape-rendering="crispEdges"/><rect fill="#1e1e1e" x="488" y="562.7" width="12.2" height="24.65" shape-rendering="crispEdges"/><rect fill="#121212" x="500.2" y="562.7" width="1207.8" height="24.65" shape-rendering="crispEdges"/><rect fill="#121212" x="0" y="587.1" width="488" height="24.65" shape-rendering="crispEdges"/><rect fill="#1e1e1e" x="488" y="587.1" width="12.2" height="24.65" shape-rendering="crispEdges"/><rect fill="#121212" x="500.2" y="587.1" width="1207.8" height="24.65" shape-rendering="crispEdges"/><rect fill="#121212" x="0" y="611.5" width="488" height="24.65" shape-rendering="crispEdges"/><rect fill="#1e1e1e" x="488" y="611.5" width="12.2" height="24.65" shape-rendering="crispEdges"/><rect fill="#121212" x="500.2" y="611.5" width="1207.8" height="24.65" shape-rendering="crispEdges"/><rect fill="#121212" x="0" y="635.9" width="488" height="24.65" shape-rendering="crispEdges"/><rect fill="#1e1e1e" x="488" y="635.9" width="12.2" height="24.65" shape-rendering="crispEdges"/><rect fill="#121212" x="500.2" y="635.9" width="1207.8" height="24.65" shape-rendering="crispEdges"/><rect fill="#121212" x="0" y="660.3" width="488" height="24.65" shape-rendering="crispEdges"/><rect fill="#1e1e1e" x="488" y="660.3" width="12.2" height="24.65" shape-rendering="crispEdges"/><rect fill="#121212" x="500.2" y="660.3" width="1207.8" height="24.65" shape-rendering="crispEdges"/><rect fill="#121212" x="0" y="684.7" width="488" height="24.65" shape-rendering="crispEdges"/><rect fill="#1e1e1e" x="488" y="684.7" width="12.2" height="24.65" shape-rendering="crispEdges"/><rect fill="#121212" x="500.2" y="684.7" width="1207.8" height="24.65" shape-rendering="crispEdges"/><rect fill="#121212" x="0" y="709.1" width="488" height="24.65" shape-rendering="crispEdges"/><rect fill="#1e1e1e" x="488" y="709.1" width="12.2" height="24.65" shape-rendering="crispEdges"/><rect fill="#121212" x="500.2" y="709.1" width="1207.8" height="24.65" shape-rendering="crispEdges"/><rect fill="#121212" x="0" y="733.5" width="488" height="24.65" shape-rendering="crispEdges"/><rect fill="#1e1e1e" x="488" y="733.5" width="12.2" height="24.65" shape-rendering="crispEdges"/><rect fill="#121212" x="500.2" y="733.5" width="1207.8" height="24.65" shape-rendering="crispEdges"/><rect fill="#121212" x="0" y="757.9" width="488" height="24.65" shape-rendering="crispEdges"/><rect fill="#000000" x="488" y="757.9" width="12.2" height="24.65" shape-rendering="crispEdges"/><rect fill="#121212" x="500.2" y="757.9" width="1207.8" height="24.65" shape-rendering="crispEdges"/><rect fill="#121212" x="0" y="782.3" width="488" height="24.65" shape-rendering="crispEdges"/><rect fill="#003054" x="488" y="782.3" width="12.2" height="24.65" shape-rendering="crispEdges"/><rect fill="#121212" x="500.2" y="782.3" width="1207.8" height="24.65" shape-rendering="crispEdges"/><rect fill="#121212" x="0" y="806.7" width="488" height="24.65" shape-rendering="crispEdges"/><rect fill="#003054" x="488" y="806.7" width="12.2" height="24.65" shape-rendering="crispEdges"/><rect fill="#121212" x="500.2" y="806.7" width="1207.8" height="24.65" shape-rendering="crispEdges"/><rect fill="#121212" x="0" y="831.1" width="488" height="24.65" shape-rendering="crispEdges"/><rect fill="#003054" x="488" y="831.1" width="12.2" height="24.65" shape-rendering="crispEdges"/><rect fill="#121212" x="500.2" y="831.1" width="1207.8" height="24.65" shape-rendering="crispEdges"/><rect fill="#121212" x="0" y="855.5" width="488" height="24.65" shape-rendering="crispEdges"/><rect fill="#003054" x="488" y="855.5" width="12.2" height="24.65" shape-rendering="crispEdges"/><rect fill="#121212" x="500.2" y="855.5" width="1207.8" height="24.65" shape-rendering="crispEdges"/><rect fill="#121212" x="0" y="879.9" width="488" height="24.65" shape-rendering="crispEdges"/><rect fill="#003054" x="488" y="879.9" width="12.2" height="24.65" shape-rendering="crispEdges"/><rect fill="#121212" x="500.2" y="879.9" width="1207.8" height="24.65" shape-rendering="crispEdges"/><rect fill="#121212" x="0" y="904.3" width="488" height="24.65" shape-rendering="crispEdges"/><rect fill="#003054" x="488" y="904.3" width="12.2" height="24.65" shape-rendering="crispEdges"/><rect fill="#121212" x="500.2" y="904.3" width="1207.8" height="24.65" shape-rendering="crispEdges"/><rect fill="#121212" x="0" y="928.7" width="488" height="24.65" shape-rendering="crispEdges"/><rect fill="#003054" x="488" y="928.7" width="12.2" height="24.65" shape-rendering="crispEdges"/><rect fill="#121212" x="500.2" y="928.7" width="1207.8" height="24.65" shape-rendering="crispEdges"/><rect fill="#121212" x="0" y="953.1" width="488" height="24.65" shape-rendering="crispEdges"/><rect fill="#003054" x="488" y="953.1" width="12.2" height="24.65" shape-rendering="crispEdges"/><rect fill="#121212" x="500.2" y="953.1" width="1207.8" height="24.65" shape-rendering="crispEdges"/><rect fill="#121212" x="0" y="977.5" width="488" height="24.65" shape-rendering="crispEdges"/><rect fill="#003054" x="488" y="977.5" width="12.2" height="24.65" shape-rendering="crispEdges"/><rect fill="#121212" x="500.2" y="977.5" width="1207.8" height="24.65" shape-rendering="crispEdges"/><rect fill="#121212" x="0" y="1001.9" width="488" height="24.65" shape-rendering="crispEdges"/><rect fill="#003054" x="488" y="1001.9" width="12.2" height="24.65" shape-rendering="crispEdges"/><rect fill="#121212" x="500.2" y="1001.9" width="1207.8" height="24.65" shape-rendering="crispEdges"/><rect fill="#121212" x="0" y="1026.3" width="488" height="24.65" shape-rendering="crispEdges"/><rect fill="#1e1e1e" x="488" y="1026.3" width="12.2" height="24.65" shape-rendering="crispEdges"/><rect fill="#121212" x="500.2" y="1026.3" width="1207.8" height="24.65" shape-rendering="crispEdges"/><rect fill="#242f38" x="0" y="1050.7" width="36.6" height="24.65" shape-rendering="crispEdges"/><rect fill="#242f38" x="36.6" y="1050.7" width="61" height="24.65" shape-rendering="crispEdges"/><rect fill="#242f38" x="97.6" y="1050.7" width="36.6" height="24.65" shape-rendering="crispEdges"/><rect fill="#242f38" x="134.2" y="1050.7" width="122" height="24.65" shape-rendering="crispEdges"/><rect fill="#242f38" x="256.2" y="1050.7" width="48.8" height="24.65" shape-rendering="crispEdges"/><rect fill="#242f38" x="305" y="1050.7" width="122" height="24.65" shape-rendering="crispEdges"/><rect fill="#242f38" x="427" y="1050.7" width="36.6" height="24.65" shape-rendering="crispEdges"/><rect fill="#242f38" x="463.6" y="1050.7" width="61" height="24.65" shape-rendering="crispEdges"/><rect fill="#242f38" x="524.6" y="1050.7" width="36.6" height="24.65" shape-rendering="crispEdges"/><rect fill="#242f38" x="561.2" y="1050.7" width="109.8" height="24.65" shape-rendering="crispEdges"/><rect fill="#242f38" x="671" y="1050.7" width="36.6" height="24.65" shape-rendering="crispEdges"/><rect fill="#242f38" x="707.6" y="1050.7" width="109.8" height="24.65" shape-rendering="crispEdges"/><rect fill="#242f38" x="817.4" y="1050.7" width="36.6" height="24.65" shape-rendering="crispEdges"/><rect fill="#242f38" x="854" y="1050.7" width="109.8" height="24.65" shape-rendering="crispEdges"/><rect fill="#242f38" x="963.8" y="1050.7" width="36.6" height="24.65" shape-rendering="crispEdges"/><rect fill="#242f38" x="1000.4" y="1050.7" width="170.8" height="24.65" shape-rendering="crispEdges"/><rect fill="#242f38" x="1171.2" y="1050.7" width="390.4" height="24.65" shape-rendering="crispEdges"/><rect fill="#242f38" x="1561.6" y="1050.7" width="12.2" height="24.65" shape-rendering="crispEdges"/><rect fill="#242f38" x="1573.8" y="1050.7" width="24.4" height="24.65" shape-rendering="crispEdges"/><rect fill="#242f38" x="1598.2" y="1050.7" width="97.6" height="24.65" shape-rendering="crispEdges"/><rect fill="#242f38" x="1695.8" y="1050.7" width="12.2" height="24.65" shape-rendering="crispEdges"/>
    <g class="terminal-866951885-matrix">
    <text class="terminal-866951885-r2" x="12.2" y="20" textLength="927.2" clip-path="url(#terminal-866951885-line-0)">Orca&#160;Run&#160;#mxint_analysis-20260707-002940-2b431d&#160;·&#160;mxint_analysis&#160;·&#160;5/5&#160;nodes</text><text class="terminal-866951885-r1" x="1708" y="20" textLength="12.2" clip-path="url(#terminal-866951885-line-0)">
</text><text class="terminal-866951885-r2" x="12.2" y="44.4" textLength="1561.6" clip-path="url(#terminal-866951885-line-1)">[全部事件]&#160;&#160;report_painter&#160;492&#160;tok&#160;·&#160;$0.0002&#160;&#160;analyzer&#160;272&#160;tok&#160;·&#160;$0.0002&#160;&#160;configurator&#160;207&#160;tok&#160;·&#160;$0.0001&#160;&#160;runner&#160;21.6k&#160;tok&#160;·&#160;$0.0034</text><text class="terminal-866951885-r1" x="1708" y="44.4" textLength="12.2" clip-path="url(#terminal-866951885-line-1)">
</text><text class="terminal-866951885-r3" x="0" y="68.8" textLength="12.2" clip-path="url(#terminal-866951885-line-2)">╭</text><text class="terminal-866951885-r3" x="12.2" y="68.8" textLength="463.6" clip-path="url(#terminal-866951885-line-2)">──────────────────────────────────────</text><text class="terminal-866951885-r3" x="475.8" y="68.8" textLength="12.2" clip-path="url(#terminal-866951885-line-2)">╮</text><text class="terminal-866951885-r4" x="488" y="68.8" textLength="12.2" clip-path="url(#terminal-866951885-line-2)">╭</text><text class="terminal-866951885-r1" x="1708" y="68.8" textLength="12.2" clip-path="url(#terminal-866951885-line-2)">
</text><text class="terminal-866951885-r3" x="0" y="93.2" textLength="12.2" clip-path="url(#terminal-866951885-line-3)">│</text><text class="terminal-866951885-r5" x="24.4" y="93.2" textLength="366" clip-path="url(#terminal-866951885-line-3)">▸&#160;analyzer&#160;&#160;&#160;&#160;&#160;&#160;&#160;✓&#160;&#160;14s&#160;&#160;·&#160;272</text><text class="terminal-866951885-r3" x="475.8" y="93.2" textLength="12.2" clip-path="url(#terminal-866951885-line-3)">│</text><text class="terminal-866951885-r4" x="488" y="93.2" textLength="12.2" clip-path="url(#terminal-866951885-line-3)">│</text><text class="terminal-866951885-r1" x="1708" y="93.2" textLength="12.2" clip-path="url(#terminal-866951885-line-3)">
</text><text class="terminal-866951885-r3" x="0" y="117.6" textLength="12.2" clip-path="url(#terminal-866951885-line-4)">│</text><text class="terminal-866951885-r5" x="24.4" y="117.6" textLength="366" clip-path="url(#terminal-866951885-line-4)">&#160;&#160;configurator&#160;&#160;&#160;✓&#160;&#160;20s&#160;&#160;·&#160;207</text><text class="terminal-866951885-r3" x="475.8" y="117.6" textLength="12.2" clip-path="url(#terminal-866951885-line-4)">│</text><text class="terminal-866951885-r4" x="488" y="117.6" textLength="12.2" clip-path="url(#terminal-866951885-line-4)">│</text><text class="terminal-866951885-r1" x="1708" y="117.6" textLength="12.2" clip-path="url(#terminal-866951885-line-4)">
</text><text class="terminal-866951885-r3" x="0" y="142" textLength="12.2" clip-path="url(#terminal-866951885-line-5)">│</text><text class="terminal-866951885-r5" x="24.4" y="142" textLength="390.4" clip-path="url(#terminal-866951885-line-5)">&#160;&#160;runner&#160;&#160;&#160;&#160;&#160;&#160;&#160;&#160;&#160;✓&#160;&#160;47s&#160;&#160;·&#160;21.6k</text><text class="terminal-866951885-r3" x="475.8" y="142" textLength="12.2" clip-path="url(#terminal-866951885-line-5)">│</text><text class="terminal-866951885-r4" x="488" y="142" textLength="12.2" clip-path="url(#terminal-866951885-line-5)">│</text><text class="terminal-866951885-r1" x="1708" y="142" textLength="12.2" clip-path="url(#terminal-866951885-line-5)">
</text><text class="terminal-866951885-r3" x="0" y="166.4" textLength="12.2" clip-path="url(#terminal-866951885-line-6)">│</text><text class="terminal-866951885-r5" x="24.4" y="166.4" textLength="390.4" clip-path="url(#terminal-866951885-line-6)">&#160;&#160;diagnostic_saver&#160;✓&#160;&#160;25s&#160;&#160;·&#160;516</text><text class="terminal-866951885-r3" x="475.8" y="166.4" textLength="12.2" clip-path="url(#terminal-866951885-line-6)">│</text><text class="terminal-866951885-r4" x="488" y="166.4" textLength="12.2" clip-path="url(#terminal-866951885-line-6)">│</text><text class="terminal-866951885-r1" x="1708" y="166.4" textLength="12.2" clip-path="url(#terminal-866951885-line-6)">
</text><text class="terminal-866951885-r3" x="0" y="190.8" textLength="12.2" clip-path="url(#terminal-866951885-line-7)">│</text><text class="terminal-866951885-r5" x="24.4" y="190.8" textLength="378.2" clip-path="url(#terminal-866951885-line-7)">&#160;&#160;report_painter&#160;✓&#160;1m19s&#160;&#160;·&#160;492</text><text class="terminal-866951885-r3" x="475.8" y="190.8" textLength="12.2" clip-path="url(#terminal-866951885-line-7)">│</text><text class="terminal-866951885-r4" x="488" y="190.8" textLength="12.2" clip-path="url(#terminal-866951885-line-7)">│</text><text class="terminal-866951885-r1" x="1708" y="190.8" textLength="12.2" clip-path="url(#terminal-866951885-line-7)">
</text><text class="terminal-866951885-r3" x="0" y="215.2" textLength="12.2" clip-path="url(#terminal-866951885-line-8)">│</text><text class="terminal-866951885-r3" x="475.8" y="215.2" textLength="12.2" clip-path="url(#terminal-866951885-line-8)">│</text><text class="terminal-866951885-r4" x="488" y="215.2" textLength="12.2" clip-path="url(#terminal-866951885-line-8)">│</text><text class="terminal-866951885-r1" x="1708" y="215.2" textLength="12.2" clip-path="url(#terminal-866951885-line-8)">
</text><text class="terminal-866951885-r3" x="0" y="239.6" textLength="12.2" clip-path="url(#terminal-866951885-line-9)">│</text><text class="terminal-866951885-r5" x="24.4" y="239.6" textLength="183" clip-path="url(#terminal-866951885-line-9)">[j/k&#160;切换&#160;·&#160;a&#160;跟随]</text><text class="terminal-866951885-r3" x="475.8" y="239.6" textLength="12.2" clip-path="url(#terminal-866951885-line-9)">│</text><text class="terminal-866951885-r4" x="488" y="239.6" textLength="12.2" clip-path="url(#terminal-866951885-line-9)">│</text><text class="terminal-866951885-r1" x="1708" y="239.6" textLength="12.2" clip-path="url(#terminal-866951885-line-9)">
</text><text class="terminal-866951885-r3" x="0" y="264" textLength="12.2" clip-path="url(#terminal-866951885-line-10)">╰</text><text class="terminal-866951885-r3" x="12.2" y="264" textLength="463.6" clip-path="url(#terminal-866951885-line-10)">──────────────────────────────────────</text><text class="terminal-866951885-r3" x="475.8" y="264" textLength="12.2" clip-path="url(#terminal-866951885-line-10)">╯</text><text class="terminal-866951885-r4" x="488" y="264" textLength="12.2" clip-path="url(#terminal-866951885-line-10)">│</text><text class="terminal-866951885-r1" x="1708" y="264" textLength="12.2" clip-path="url(#terminal-866951885-line-10)">
</text><text class="terminal-866951885-r4" x="488" y="288.4" textLength="12.2" clip-path="url(#terminal-866951885-line-11)">│</text><text class="terminal-866951885-r1" x="1708" y="288.4" textLength="12.2" clip-path="url(#terminal-866951885-line-11)">
</text><text class="terminal-866951885-r4" x="488" y="312.8" textLength="12.2" clip-path="url(#terminal-866951885-line-12)">│</text><text class="terminal-866951885-r1" x="1708" y="312.8" textLength="12.2" clip-path="url(#terminal-866951885-line-12)">
</text><text class="terminal-866951885-r4" x="488" y="337.2" textLength="12.2" clip-path="url(#terminal-866951885-line-13)">│</text><text class="terminal-866951885-r1" x="1708" y="337.2" textLength="12.2" clip-path="url(#terminal-866951885-line-13)">
</text><text class="terminal-866951885-r4" x="488" y="361.6" textLength="12.2" clip-path="url(#terminal-866951885-line-14)">│</text><text class="terminal-866951885-r1" x="1708" y="361.6" textLength="12.2" clip-path="url(#terminal-866951885-line-14)">
</text><text class="terminal-866951885-r4" x="488" y="386" textLength="12.2" clip-path="url(#terminal-866951885-line-15)">│</text><text class="terminal-866951885-r1" x="1708" y="386" textLength="12.2" clip-path="url(#terminal-866951885-line-15)">
</text><text class="terminal-866951885-r4" x="488" y="410.4" textLength="12.2" clip-path="url(#terminal-866951885-line-16)">│</text><text class="terminal-866951885-r1" x="1708" y="410.4" textLength="12.2" clip-path="url(#terminal-866951885-line-16)">
</text><text class="terminal-866951885-r4" x="488" y="434.8" textLength="12.2" clip-path="url(#terminal-866951885-line-17)">│</text><text class="terminal-866951885-r1" x="1708" y="434.8" textLength="12.2" clip-path="url(#terminal-866951885-line-17)">
</text><text class="terminal-866951885-r4" x="488" y="459.2" textLength="12.2" clip-path="url(#terminal-866951885-line-18)">│</text><text class="terminal-866951885-r1" x="1708" y="459.2" textLength="12.2" clip-path="url(#terminal-866951885-line-18)">
</text><text class="terminal-866951885-r4" x="488" y="483.6" textLength="12.2" clip-path="url(#terminal-866951885-line-19)">│</text><text class="terminal-866951885-r1" x="1708" y="483.6" textLength="12.2" clip-path="url(#terminal-866951885-line-19)">
</text><text class="terminal-866951885-r4" x="488" y="508" textLength="12.2" clip-path="url(#terminal-866951885-line-20)">│</text><text class="terminal-866951885-r1" x="1708" y="508" textLength="12.2" clip-path="url(#terminal-866951885-line-20)">
</text><text class="terminal-866951885-r4" x="488" y="532.4" textLength="12.2" clip-path="url(#terminal-866951885-line-21)">│</text><text class="terminal-866951885-r1" x="1708" y="532.4" textLength="12.2" clip-path="url(#terminal-866951885-line-21)">
</text><text class="terminal-866951885-r4" x="488" y="556.8" textLength="12.2" clip-path="url(#terminal-866951885-line-22)">│</text><text class="terminal-866951885-r1" x="1708" y="556.8" textLength="12.2" clip-path="url(#terminal-866951885-line-22)">
</text><text class="terminal-866951885-r4" x="488" y="581.2" textLength="12.2" clip-path="url(#terminal-866951885-line-23)">│</text><text class="terminal-866951885-r1" x="1708" y="581.2" textLength="12.2" clip-path="url(#terminal-866951885-line-23)">
</text><text class="terminal-866951885-r4" x="488" y="605.6" textLength="12.2" clip-path="url(#terminal-866951885-line-24)">│</text><text class="terminal-866951885-r1" x="1708" y="605.6" textLength="12.2" clip-path="url(#terminal-866951885-line-24)">
</text><text class="terminal-866951885-r4" x="488" y="630" textLength="12.2" clip-path="url(#terminal-866951885-line-25)">│</text><text class="terminal-866951885-r1" x="1708" y="630" textLength="12.2" clip-path="url(#terminal-866951885-line-25)">
</text><text class="terminal-866951885-r4" x="488" y="654.4" textLength="12.2" clip-path="url(#terminal-866951885-line-26)">│</text><text class="terminal-866951885-r1" x="1708" y="654.4" textLength="12.2" clip-path="url(#terminal-866951885-line-26)">
</text><text class="terminal-866951885-r4" x="488" y="678.8" textLength="12.2" clip-path="url(#terminal-866951885-line-27)">│</text><text class="terminal-866951885-r1" x="1708" y="678.8" textLength="12.2" clip-path="url(#terminal-866951885-line-27)">
</text><text class="terminal-866951885-r4" x="488" y="703.2" textLength="12.2" clip-path="url(#terminal-866951885-line-28)">│</text><text class="terminal-866951885-r1" x="1708" y="703.2" textLength="12.2" clip-path="url(#terminal-866951885-line-28)">
</text><text class="terminal-866951885-r4" x="488" y="727.6" textLength="12.2" clip-path="url(#terminal-866951885-line-29)">╰</text><text class="terminal-866951885-r1" x="1708" y="727.6" textLength="12.2" clip-path="url(#terminal-866951885-line-29)">
</text><text class="terminal-866951885-r6" x="488" y="752" textLength="12.2" clip-path="url(#terminal-866951885-line-30)">╭</text><text class="terminal-866951885-r1" x="1708" y="752" textLength="12.2" clip-path="url(#terminal-866951885-line-30)">
</text><text class="terminal-866951885-r7" x="488" y="776.4" textLength="12.2" clip-path="url(#terminal-866951885-line-31)">▁</text><text class="terminal-866951885-r1" x="1708" y="776.4" textLength="12.2" clip-path="url(#terminal-866951885-line-31)">
</text><text class="terminal-866951885-r1" x="1708" y="800.8" textLength="12.2" clip-path="url(#terminal-866951885-line-32)">
</text><text class="terminal-866951885-r1" x="1708" y="825.2" textLength="12.2" clip-path="url(#terminal-866951885-line-33)">
</text><text class="terminal-866951885-r1" x="1708" y="849.6" textLength="12.2" clip-path="url(#terminal-866951885-line-34)">
</text><text class="terminal-866951885-r1" x="1708" y="874" textLength="12.2" clip-path="url(#terminal-866951885-line-35)">
</text><text class="terminal-866951885-r1" x="1708" y="898.4" textLength="12.2" clip-path="url(#terminal-866951885-line-36)">
</text><text class="terminal-866951885-r1" x="1708" y="922.8" textLength="12.2" clip-path="url(#terminal-866951885-line-37)">
</text><text class="terminal-866951885-r1" x="1708" y="947.2" textLength="12.2" clip-path="url(#terminal-866951885-line-38)">
</text><text class="terminal-866951885-r1" x="1708" y="971.6" textLength="12.2" clip-path="url(#terminal-866951885-line-39)">
</text><text class="terminal-866951885-r1" x="1708" y="996" textLength="12.2" clip-path="url(#terminal-866951885-line-40)">
</text><text class="terminal-866951885-r1" x="1708" y="1020.4" textLength="12.2" clip-path="url(#terminal-866951885-line-41)">
</text><text class="terminal-866951885-r6" x="488" y="1044.8" textLength="12.2" clip-path="url(#terminal-866951885-line-42)">╰</text><text class="terminal-866951885-r1" x="1708" y="1044.8" textLength="12.2" clip-path="url(#terminal-866951885-line-42)">
</text><text class="terminal-866951885-r9" x="0" y="1069.2" textLength="36.6" clip-path="url(#terminal-866951885-line-43)">&#160;q&#160;</text><text class="terminal-866951885-r5" x="36.6" y="1069.2" textLength="36.6" clip-path="url(#terminal-866951885-line-43)">退出&#160;</text><text class="terminal-866951885-r9" x="97.6" y="1069.2" textLength="36.6" clip-path="url(#terminal-866951885-line-43)">&#160;g&#160;</text><text class="terminal-866951885-r5" x="134.2" y="1069.2" textLength="97.6" clip-path="url(#terminal-866951885-line-43)">跳到&#160;gate&#160;</text><text class="terminal-866951885-r9" x="256.2" y="1069.2" textLength="48.8" clip-path="url(#terminal-866951885-line-43)">&#160;^g&#160;</text><text class="terminal-866951885-r5" x="305" y="1069.2" textLength="73.2" clip-path="url(#terminal-866951885-line-43)">中断/纠偏&#160;</text><text class="terminal-866951885-r9" x="427" y="1069.2" textLength="36.6" clip-path="url(#terminal-866951885-line-43)">&#160;d&#160;</text><text class="terminal-866951885-r5" x="463.6" y="1069.2" textLength="36.6" clip-path="url(#terminal-866951885-line-43)">对话&#160;</text><text class="terminal-866951885-r9" x="524.6" y="1069.2" textLength="36.6" clip-path="url(#terminal-866951885-line-43)">&#160;a&#160;</text><text class="terminal-866951885-r5" x="561.2" y="1069.2" textLength="61" clip-path="url(#terminal-866951885-line-43)">跟随活跃&#160;</text><text class="terminal-866951885-r9" x="671" y="1069.2" textLength="36.6" clip-path="url(#terminal-866951885-line-43)">&#160;c&#160;</text><text class="terminal-866951885-r5" x="707.6" y="1069.2" textLength="85.4" clip-path="url(#terminal-866951885-line-43)">图表&#160;tab&#160;</text><text class="terminal-866951885-r9" x="817.4" y="1069.2" textLength="36.6" clip-path="url(#terminal-866951885-line-43)">&#160;C&#160;</text><text class="terminal-866951885-r5" x="854" y="1069.2" textLength="61" clip-path="url(#terminal-866951885-line-43)">全屏图表&#160;</text><text class="terminal-866951885-r9" x="963.8" y="1069.2" textLength="36.6" clip-path="url(#terminal-866951885-line-43)">&#160;t&#160;</text><text class="terminal-866951885-r5" x="1000.4" y="1069.2" textLength="146.4" clip-path="url(#terminal-866951885-line-43)">切换&#160;thinking&#160;</text><text class="terminal-866951885-r10" x="1561.6" y="1069.2" textLength="12.2" clip-path="url(#terminal-866951885-line-43)">▏</text><text class="terminal-866951885-r9" x="1573.8" y="1069.2" textLength="24.4" clip-path="url(#terminal-866951885-line-43)">^p</text><text class="terminal-866951885-r5" x="1598.2" y="1069.2" textLength="97.6" clip-path="url(#terminal-866951885-line-43)">&#160;palette</text>
    </g>
    </g>
</svg>
